<svg width="14" height="14" viewBox="0 0 14 14" fill="none" xmlns="http://www.w3.org/2000/svg">
<path d="M7 0C3.14118 0 0 3.14136 0 7C0 10.8588 3.14136 14 7 14C10.8588 14 14 10.8586 14 7C14 3.14118 10.8586 0 7 0ZM7 1.23537C10.1911 1.23537 12.7647 3.80904 12.7647 7.00007C12.7647 10.1911 10.191 12.7648 7 12.7648C3.80897 12.7648 1.23529 10.1911 1.23529 7.00007C1.23529 3.80904 3.80897 1.23537 7 1.23537ZM7 2.26478C6.65892 2.26478 6.38232 2.54138 6.38232 2.88246V7.00011C6.38232 7.22845 6.50683 7.42721 6.69108 7.53404L9.90152 9.38691C10.1969 9.55752 10.5738 9.45714 10.7444 9.16173C10.915 8.86632 10.8146 8.48949 10.5192 8.31886L7.61766 6.64607V2.8821C7.61766 2.54102 7.34121 2.26441 6.99998 2.26441L7 2.26478Z" fill="#E1C98A"/>
</svg>
